<?xml version="1.0" standalone="no"?>
<svg xmlns="http://www.w3.org/2000/svg" width="394.6198558558559" height="128.77985585585589" viewBox="0 0 394.6198558558559 128.77985585585589"><g fill="#ffb39f" color="#ffb39f" transform="translate(0 18.915) scale(1.2877986)"><g transform="translate(-0.24, -12.616)"><svg width="100.0" height="70.625" x="0.24" y="12.616" viewBox="0.24 12.616 100 70.625"><rect x="41.932" y="19.744" width="39.071" height="6.451"></rect><polyline points="41.811,20.405 38.457,20.405 43.969,12.616 78.844,12.616 84.479,20.405 80.882,20.405 "></polyline><line fill="none" x1="86.621" y1="34.698" x2="91.972" y2="34.698"></line><rect x="86.621" y="32.9" width="5.351" height="3.596"></rect><path d="M100.24,62.654H89.813V31.912h10.427V62.654z M91.972,60.496h6.111V34.069h-6.111V60.496z"></path><path d="M87.028,25.369H35.59V82.98h15.431V71.664h9.26V82.98h3.086V71.664h8.23V82.98h15.431V25.369z M57.194,62.405H41.763v-7.202  h15.431V62.405z M57.194,51.088H41.763v-7.201h15.431V51.088z M57.194,38.743H41.763v-7.201h15.431V38.743z M80.856,62.405H65.425  v-7.202h15.432V62.405z M80.856,51.088H65.425v-7.201h15.432V51.088z M80.856,38.743H65.425v-7.201h15.432V38.743z"></path><path d="M26.194,83.241c0,0,2.674-11.427-1.626-18.217c-4.3-6.791-8.034-7.814-8.996-8.151c-2.198-0.768-8.874,5.639-8.316,11.094  c-2.77-3.756-3.514-11.706,2.729-14.668c-1.922-1.134-6.963,1.151-9.745,3.578c0-4.864,5.26-9.927,10.871-8.976  c0.873-1.204,1.244-8.532,12.312-8.806c-4.337,2.223-7.23,7.445-6.896,9.483c0.418-0.53,8.829-6.921,16.289,3.281  c-4.765-1.664-10.517-1.664-13.229,2.528c16.068,7.468,11.51,28.846,11.03,28.851C29.868,83.241,26.194,83.241,26.194,83.241z"></path></svg></g></g><path fill="#ec5353" fill-rule="nonzero" d="M22.32 6.68Q22.32 5.48 22.92 4.86Q23.52 4.24 24.40 4.24Q25.28 4.24 25.92 4.80L25.92 4.80L25.92 26.64L29.48 26.64Q30.16 26.64 30.54 26.98Q30.92 27.32 30.92 27.84Q30.92 28.36 30.56 28.72L30.56 28.72L25.92 28.72L25.92 36.32Q25.92 37.52 25.32 38.14Q24.72 38.76 23.84 38.76Q22.96 38.76 22.32 38.20L22.32 38.20L22.32 28.72L10.60 28.72L10.60 30.96Q10.60 35.96 9.08 38.44Q7.56 40.92 4.24 40.92L4.24 40.92Q2.24 40.92 1.12 39.64Q0 38.36 0 36.00L0 36.00Q0 32.24 2.06 29.88Q4.12 27.52 7 26.96L7 26.96L7 10.20Q7 9.00 7.60 8.38Q8.20 7.76 9.08 7.76Q9.96 7.76 10.60 8.32L10.60 8.32L10.60 26.68L22.32 26.68L22.32 6.68ZM1.84 36.12Q1.84 37.64 2.50 38.44Q3.16 39.24 4.38 39.24Q5.60 39.24 6.28 37.52Q6.96 35.80 7 31.28L7 31.28L7 29.04Q4.72 29.56 3.28 31.40Q1.84 33.24 1.84 36.12L1.84 36.12ZM46.72 9.52Q47.44 9.52 47.88 9.94Q48.32 10.36 48.32 10.84Q48.32 11.32 48.08 11.40L48.08 11.40Q44.08 11.40 41.88 14.40Q39.68 17.40 39.68 22.94Q39.68 28.48 42.08 32.30Q44.48 36.12 48.76 36.12Q53.04 36.12 55.58 32.08Q58.12 28.04 58.12 21.90Q58.12 15.76 55.14 11.70Q52.16 7.64 47.36 7.64Q42.56 7.64 39.18 10.38Q35.80 13.12 35.64 16.92L35.64 16.92Q35.48 17.24 34.88 17.24L34.88 17.24Q33.84 17.16 33.84 15.88Q33.84 14.60 34.36 13.26Q34.88 11.92 36.04 10.56Q37.20 9.20 38.76 8.10Q40.32 7.00 42.64 6.32Q44.96 5.64 47.64 5.64L47.64 5.64Q54.08 5.64 57.94 10.26Q61.80 14.88 61.80 21.96Q61.80 29.04 58.26 33.38Q54.72 37.72 48.78 37.72Q42.84 37.72 39.42 33.60Q36 29.48 36 22.48L36 22.48Q36 19.20 37.06 16.60Q38.12 14.00 39.80 12.52L39.80 12.52Q43.20 9.52 46.72 9.52L46.72 9.52ZM93.96 0.60L93.96 0.60Q93.96 0 95.14 0Q96.32 0 97.56 1.30Q98.80 2.60 98.80 4.28L98.80 4.28Q98.80 10.44 89.64 10.44L89.64 10.44Q85.96 10.44 82.84 9.80L82.84 9.80L82.84 28.96Q82.84 33.16 81.26 35.64Q79.68 38.12 76.50 38.12Q73.32 38.12 71.72 36.66Q70.12 35.20 70.12 32.80L70.12 32.80Q70.12 29.72 72.12 29.72L72.12 29.72Q72.60 29.72 72.96 29.96Q73.32 30.20 73.56 30.64L73.56 30.64Q73.24 31.48 73.24 33.12Q73.24 34.76 74.10 35.62Q74.96 36.48 76.28 36.48L76.28 36.48Q79.04 36.48 79.16 31.36L79.16 31.36L79.16 8.92Q76.52 8.16 74.04 7.04L74.04 7.04Q71.44 10.16 66.16 10.16L66.16 10.16Q64 10.16 62.64 9.22Q61.28 8.28 61.28 6.36L61.28 6.36Q61.28 2.52 66.08 2.52L66.08 2.52Q69.52 2.52 76.12 5.08L76.12 5.08Q78.56 6.00 82.26 6.80Q85.96 7.60 89.80 7.60Q93.64 7.60 95.04 6.76Q96.44 5.92 96.44 4.28L96.44 4.28Q96.44 3.28 95.90 2.54Q95.36 1.80 94.80 1.56L94.80 1.56L94.28 1.32Q93.96 1.08 93.96 0.60ZM66.12 8.32L66.12 8.32Q70.40 8.32 72.08 6.20L72.08 6.20Q67.80 4.32 66.30 4.32Q64.80 4.32 64.14 4.86Q63.48 5.40 63.48 6.24L63.48 6.24Q63.48 8.32 66.12 8.32ZM112.08 25.08L112.08 25.08Q112.84 25.08 112.84 26.40L112.84 26.40Q112.84 30.84 109.88 34.28L109.88 34.28Q108.44 35.96 106.08 37.00Q103.72 38.04 100.84 38.04L100.84 38.04Q95.64 38.04 92.14 35.60Q88.64 33.16 88.64 28.76L88.64 28.76Q88.64 26.80 89.24 25.28Q89.84 23.76 90.66 22.92Q91.48 22.08 92.52 21.52L92.52 21.52Q94.28 20.60 95.84 20.60L95.84 20.60Q93.68 20.28 92.12 18.68L92.12 18.68Q91.40 18.00 90.86 16.64Q90.32 15.28 90.32 13.52L90.32 13.52Q90.32 9.76 92.96 7.78Q95.60 5.80 99.98 5.80Q104.36 5.80 106.58 7.58Q108.80 9.36 108.80 11.84L108.80 11.84Q108.80 12.84 108.20 13.44Q107.60 14.04 107 14.04L107 14.04Q106 14.04 105.68 13.56L105.68 13.56Q105.92 12.96 105.92 12.08L105.92 12.08Q105.92 9.92 104.28 8.84Q102.64 7.76 100 7.76Q97.36 7.76 95.68 9.22Q94 10.68 94 13.52L94 13.52Q94 19.48 102.04 19.48L102.04 19.48Q102.48 19.48 102.86 19.74Q103.24 20.00 103.24 20.52L103.24 20.52Q103.24 21.56 102.04 21.56L102.04 21.56Q97.76 21.56 95.04 23.32Q92.32 25.08 92.32 28.74Q92.32 32.40 94.66 34.22Q97 36.04 101.10 36.04Q105.20 36.04 108.30 33.08Q111.40 30.12 111.40 25.36L111.40 25.36Q111.48 25.08 112.08 25.08ZM107.94 13.76Q107.44 13.56 107.30 13.36Q107.16 13.16 107.16 12.82Q107.16 12.48 107.40 12.32L107.40 12.32Q111.44 12.32 111.84 12.28L111.84 12.28Q112.04 7.92 113.56 5.76Q115.08 3.60 118.16 3.60L118.16 3.60Q120.12 3.60 121.26 4.76Q122.40 5.92 122.40 7.72L122.40 7.72Q122.40 10.28 120.68 11.68Q118.96 13.08 115.40 13.60L115.40 13.60L115.40 26.12Q115.40 28.84 114.80 31.00L114.80 31.00Q114.96 31.16 115.50 31.62Q116.04 32.08 116.24 32.26Q116.44 32.44 116.96 32.88Q117.48 33.32 117.74 33.50Q118 33.68 118.52 34.02Q119.04 34.36 119.40 34.52Q119.76 34.68 120.30 34.90Q120.84 35.12 121.32 35.24L121.32 35.24Q122.56 35.48 123.60 35.48L123.60 35.48Q127.56 35.48 129.58 33.62Q131.60 31.76 131.60 28.24L131.60 28.24Q131.64 28.00 132.02 28.00Q132.40 28.00 132.60 28.12L132.60 28.12Q133.20 28.56 133.20 30.08L133.20 30.08Q133.20 33.40 130.36 35.58Q127.52 37.76 123.56 37.76L123.56 37.76Q120.56 37.76 118.32 36.56Q116.08 35.36 113.92 33.28L113.92 33.28Q112.12 36.72 108.72 36.72L108.72 36.72Q106.48 36.72 105.30 35.54Q104.12 34.36 104.12 32.44Q104.12 30.52 105.36 29.28Q106.60 28.04 108.44 28.04Q110.28 28.04 111.72 28.76L111.72 28.76Q111.80 27.08 111.80 25.96L111.80 25.96L111.80 13.92Q111 13.96 109.72 13.96Q108.44 13.96 107.94 13.76ZM120.56 7.60L120.56 7.60Q120.56 6.64 119.86 5.96Q119.16 5.28 118.02 5.28Q116.88 5.28 116.20 6.74Q115.52 8.20 115.40 11.92L115.40 11.92Q120.56 10.96 120.56 7.60ZM105.92 32.40L105.92 32.40Q105.92 35.04 108.72 35.04L108.72 35.04Q110.96 35.04 111.52 31.00L111.52 31.00Q109.92 29.68 108.64 29.68Q107.36 29.68 106.64 30.40Q105.92 31.12 105.92 32.40Z" transform="translate(143.78 0) scale(1.884)"></path><path fill="#ec5353" fill-rule="nonzero" d="M11.44 3.24L11.44 5.96L12.64 5.92Q18.60 5.92 22.24 7.96Q25.88 10.00 25.88 13.76L25.88 13.76Q25.88 16.56 24.48 18.24L24.48 18.24Q23.28 19.72 22.32 20.20L22.32 20.20L21.92 20.44Q22.60 20.56 23.78 21.22Q24.96 21.88 25.72 22.66Q26.48 23.44 27.12 24.92Q27.76 26.40 27.76 28.20L27.76 28.20Q27.76 32.96 23.76 35.44Q19.76 37.92 12.20 37.92L12.20 37.92Q6.76 37.92 3.38 35.28Q0 32.64 0 29.28L0 29.28Q0 28.72 0.34 28.36Q0.68 28.00 1.14 28.00Q1.60 28.00 1.84 28.24L1.84 28.24Q1.84 30.72 3.48 32.56Q5.12 34.40 7.84 35.28L7.84 35.28L7.84 9.12Q6.08 9.92 5 11.02Q3.92 12.12 3.92 13.12Q3.92 14.12 4.16 14.84L4.16 14.84Q3.92 15.32 3.08 15.32Q2.24 15.32 1.64 14.72Q1.04 14.12 1.04 13.12L1.04 13.12Q1.04 11.24 2.92 9.40Q4.80 7.56 7.84 6.64L7.84 6.64L7.84 5.12Q7.84 3.92 8.44 3.30Q9.04 2.68 9.92 2.68Q10.80 2.68 11.44 3.24L11.44 3.24ZM11.60 35.92L12.20 35.92Q18.16 35.92 21.12 34.04Q24.08 32.16 24.08 28.20L24.08 28.20Q24.08 21.40 14.96 21.40L14.96 21.40Q14.56 21.40 14.28 21.04Q14 20.68 14 20.08L14 20.08Q14 19.32 14.96 19.32L14.96 19.32Q19.44 19.32 20.96 17.48L20.96 17.48Q22.20 16.00 22.20 13.76L22.20 13.76Q22.20 10.92 19.58 9.42Q16.96 7.92 12.84 7.88L12.84 7.88Q12.08 7.88 11.60 8.00L11.60 8.00L11.60 35.92ZM47.02 34.06Q47.40 34.40 47.40 34.92Q47.40 35.44 47.04 35.80L47.04 35.80L36.28 35.80Q34.84 35.80 34.84 34.64L34.84 34.64Q34.84 34.12 35.20 33.76L35.20 33.76L39.52 33.72L39.52 9.88L36.28 9.88Q34.84 9.88 34.84 8.72L34.84 8.72Q34.84 8.24 35.20 7.80L35.20 7.80L45.96 7.80Q46.64 7.80 47.02 8.14Q47.40 8.48 47.40 9.00Q47.40 9.52 47.04 9.88L47.04 9.88L43.12 9.88L43.12 33.72L45.96 33.72Q46.64 33.72 47.02 34.06ZM72.76 25.08L72.76 25.08Q73.52 25.08 73.52 26.40L73.52 26.40Q73.52 30.84 70.56 34.28L70.56 34.28Q69.12 35.96 66.76 37.00Q64.40 38.04 61.52 38.04L61.52 38.04Q56.32 38.04 52.82 35.60Q49.32 33.16 49.32 28.76L49.32 28.76Q49.32 26.80 49.92 25.28Q50.52 23.76 51.34 22.92Q52.16 22.08 53.20 21.52L53.20 21.52Q54.96 20.60 56.52 20.60L56.52 20.60Q54.36 20.28 52.80 18.68L52.80 18.68Q52.08 18.00 51.54 16.64Q51.00 15.28 51.00 13.52L51.00 13.52Q51.00 9.76 53.64 7.78Q56.28 5.80 60.66 5.80Q65.04 5.80 67.26 7.58Q69.48 9.36 69.48 11.84L69.48 11.84Q69.48 12.84 68.88 13.44Q68.28 14.04 67.68 14.04L67.68 14.04Q66.68 14.04 66.36 13.56L66.36 13.56Q66.60 12.96 66.60 12.08L66.60 12.08Q66.60 9.92 64.96 8.84Q63.32 7.76 60.68 7.76Q58.04 7.76 56.36 9.22Q54.68 10.68 54.68 13.52L54.68 13.52Q54.68 19.48 62.72 19.48L62.72 19.48Q63.16 19.48 63.54 19.74Q63.92 20.00 63.92 20.52L63.92 20.52Q63.92 21.56 62.72 21.56L62.72 21.56Q58.44 21.56 55.72 23.32Q53.00 25.08 53.00 28.74Q53.00 32.40 55.34 34.22Q57.68 36.04 61.78 36.04Q65.88 36.04 68.98 33.08Q72.08 30.12 72.08 25.36L72.08 25.36Q72.16 25.08 72.76 25.08ZM76.32 14.80L76.32 14.80Q76.32 15.52 76.64 16.24L76.64 16.24Q76.28 16.72 75.44 16.72Q74.60 16.72 74.02 16.12Q73.44 15.52 73.44 14.16L73.44 14.16Q73.44 11.00 75.36 9.02Q77.28 7.04 80.48 7.04L80.48 7.04Q85.76 7.04 86.76 12.80L86.76 12.80Q87.64 10.12 89.64 8.52Q91.64 6.92 94.32 6.92L94.32 6.92Q98.48 6.96 100.56 10.06Q102.64 13.16 102.64 18.36L102.64 18.36L102.64 29.68Q102.64 32.00 103.58 33.40Q104.52 34.80 106.04 34.80L106.04 34.80Q109.80 34.80 109.80 27.28L109.80 27.28Q109.84 27.04 110.22 27.04Q110.60 27.04 110.80 27.16L110.80 27.16Q111.40 27.60 111.40 29.12L111.40 29.12Q111.40 32.48 109.80 34.56Q108.20 36.64 105.56 36.64L105.56 36.64Q101.88 36.64 100.42 34.18Q98.96 31.72 98.96 27.28L98.96 27.28L98.96 18.36Q98.96 8.92 94.32 8.92L94.32 8.92Q92.52 8.92 91.18 9.82Q89.84 10.72 89.08 12.04Q88.32 13.36 87.88 15.20L87.88 15.20Q87.12 18.16 87.12 21.96L87.12 21.96L87.12 27.08Q87.12 32.04 85.54 34.94Q83.96 37.84 80.78 37.84Q77.60 37.84 76.00 36.38Q74.40 34.92 74.40 32.52L74.40 32.52Q74.40 29.44 76.40 29.44L76.40 29.44Q76.88 29.44 77.24 29.66Q77.60 29.88 77.84 30.36L77.84 30.36Q77.52 31.20 77.52 32.86Q77.52 34.52 78.38 35.36Q79.24 36.20 80.56 36.20L80.56 36.20Q83.40 36.20 83.40 29.48L83.40 29.48L83.40 14.00Q83.40 11.68 82.46 10.28Q81.52 8.88 79.90 8.88Q78.28 8.88 77.30 10.18Q76.32 11.48 76.32 14.80ZM131.60 25.08L131.60 25.08Q132.36 25.08 132.36 26.40L132.36 26.40Q132.36 30.84 129.40 34.28L129.40 34.28Q127.96 35.96 125.60 37.00Q123.24 38.04 120.36 38.04L120.36 38.04Q115.16 38.04 111.66 35.60Q108.16 33.16 108.16 28.76L108.16 28.76Q108.16 26.80 108.76 25.28Q109.36 23.76 110.18 22.92Q111 22.08 112.04 21.52L112.04 21.52Q113.80 20.60 115.36 20.60L115.36 20.60Q113.20 20.28 111.64 18.68L111.64 18.68Q110.92 18.00 110.38 16.64Q109.84 15.28 109.84 13.52L109.84 13.52Q109.84 9.76 112.48 7.78Q115.12 5.80 119.50 5.80Q123.88 5.80 126.10 7.58Q128.32 9.36 128.32 11.84L128.32 11.84Q128.32 12.84 127.72 13.44Q127.12 14.04 126.52 14.04L126.52 14.04Q125.52 14.04 125.20 13.56L125.20 13.56Q125.44 12.96 125.44 12.08L125.44 12.08Q125.44 9.92 123.80 8.84Q122.16 7.76 119.52 7.76Q116.88 7.76 115.20 9.22Q113.52 10.68 113.52 13.52L113.52 13.52Q113.52 19.48 121.56 19.48L121.56 19.48Q122 19.48 122.38 19.74Q122.76 20.00 122.76 20.52L122.76 20.52Q122.76 21.56 121.56 21.56L121.56 21.56Q117.28 21.56 114.56 23.32Q111.84 25.08 111.84 28.74Q111.84 32.40 114.18 34.22Q116.52 36.04 120.62 36.04Q124.72 36.04 127.82 33.08Q130.92 30.12 130.92 25.36L130.92 25.36Q131 25.08 131.60 25.08ZM149.28 29.68L149.28 29.68Q149.28 27.76 148.38 26.40Q147.48 25.04 146.06 24.28Q144.64 23.52 142.92 22.92Q141.20 22.32 139.48 21.70Q137.76 21.08 136.34 20.22Q134.92 19.36 134.02 17.84Q133.12 16.32 133.12 14.16L133.12 14.16Q133.12 10.44 135.86 8.32Q138.60 6.20 142.90 6.20Q147.20 6.20 149.76 8.16Q152.32 10.12 152.32 12.44L152.32 12.44Q152.32 14.04 151.70 14.82Q151.08 15.60 150.24 15.60L150.24 15.60Q148.68 15.60 148.24 15.00L148.24 15.00L148.12 14.80Q148.52 14.28 148.52 12.80L148.52 12.80Q148.52 10.52 146.60 9.22Q144.68 7.92 142.14 7.92Q139.60 7.92 138.12 9.28Q136.64 10.64 136.64 12.60Q136.64 14.56 137.54 15.86Q138.44 17.16 139.88 17.88Q141.32 18.60 143.06 19.16Q144.80 19.72 146.54 20.38Q148.28 21.04 149.72 21.98Q151.16 22.92 152.06 24.64Q152.96 26.36 152.96 28.80L152.96 28.80Q152.96 33.08 149.92 35.36Q146.88 37.64 142.30 37.64Q137.72 37.64 134.34 35.30Q130.96 32.96 130.96 29.44L130.96 29.44Q130.96 27.80 131.60 26.86Q132.24 25.92 133.12 25.92L133.12 25.92Q134.68 25.92 135.12 26.44L135.12 26.44L135.24 26.64Q134.88 27.64 134.88 29.08L134.88 29.08Q134.88 31.80 137.10 33.84Q139.32 35.88 142.92 35.88L142.92 35.88Q145.52 35.88 147.40 34.06Q149.28 32.24 149.28 29.68ZM183.36 0.60L183.36 0.60Q183.36 0 184.54 0Q185.72 0 186.96 1.30Q188.20 2.60 188.20 4.28L188.20 4.28Q188.20 10.44 179.04 10.44L179.04 10.44Q175.36 10.44 172.24 9.80L172.24 9.80L172.24 28.96Q172.24 33.16 170.66 35.64Q169.08 38.12 165.90 38.12Q162.72 38.12 161.12 36.66Q159.52 35.20 159.52 32.80L159.52 32.80Q159.52 29.72 161.52 29.72L161.52 29.72Q162 29.72 162.36 29.96Q162.72 30.20 162.96 30.64L162.96 30.64Q162.64 31.48 162.64 33.12Q162.64 34.76 163.50 35.62Q164.36 36.48 165.68 36.48L165.68 36.48Q168.44 36.48 168.56 31.36L168.56 31.36L168.56 8.92Q165.92 8.16 163.44 7.04L163.44 7.04Q160.84 10.16 155.56 10.16L155.56 10.16Q153.40 10.16 152.04 9.22Q150.68 8.28 150.68 6.36L150.68 6.36Q150.68 2.52 155.48 2.52L155.48 2.52Q158.92 2.52 165.52 5.08L165.52 5.08Q167.96 6.00 171.66 6.80Q175.36 7.60 179.20 7.60Q183.04 7.60 184.44 6.76Q185.84 5.92 185.84 4.28L185.84 4.28Q185.84 3.28 185.30 2.54Q184.76 1.80 184.20 1.56L184.20 1.56L183.68 1.32Q183.36 1.08 183.36 0.60ZM155.52 8.32L155.52 8.32Q159.80 8.32 161.48 6.20L161.48 6.20Q157.20 4.32 155.70 4.32Q154.20 4.32 153.54 4.86Q152.88 5.40 152.88 6.24L152.88 6.24Q152.88 8.32 155.52 8.32ZM212.06 26.98Q212.44 27.32 212.44 27.84Q212.44 28.36 212.08 28.72L212.08 28.72L206.40 28.72L208.68 36.32Q208.76 36.60 208.76 37.04Q208.76 37.48 208.20 38.12Q207.64 38.76 207.04 38.76L207.04 38.76Q205.92 38.76 205.28 38.20L205.28 38.20L202.44 28.72L192.24 28.72L190.24 34.16Q189.20 36.92 187.24 38.92Q185.28 40.92 182.16 40.92L182.16 40.92Q179.80 40.92 178.46 39.68Q177.12 38.44 177.12 36.08Q177.12 33.72 178.26 31.82Q179.40 29.92 181.28 28.84L181.28 28.84Q185.04 26.68 189.68 26.68L189.68 26.68L195.52 10.20Q195.92 9.04 196.36 8.48L196.36 8.48Q195.12 4.32 195.12 3.90Q195.12 3.48 195.70 2.94Q196.28 2.40 196.88 2.40L196.88 2.40Q198.04 2.40 198.68 2.96L198.68 2.96L205.76 26.68L211 26.64Q211.68 26.64 212.06 26.98ZM182.16 39.24L182.16 39.24Q185.16 39.24 187.36 33.20L187.36 33.20L188.92 28.76Q184.52 28.76 181.94 30.84Q179.36 32.92 179.36 36.32L179.36 36.32Q179.36 37.72 180.14 38.48Q180.92 39.24 182.16 39.24ZM201.80 26.68L197.88 11.56L193 26.68L201.80 26.68ZM215.24 14.36L215.24 14.36Q215.24 15.12 215.48 15.84L215.48 15.84Q215.24 16.32 214.40 16.32Q213.56 16.32 212.96 15.72Q212.36 15.12 212.36 14.12L212.36 14.12Q212.36 11.84 214.30 9.90Q216.24 7.96 219.06 6.94Q221.88 5.92 224.76 5.92L224.76 5.92Q238.20 5.92 238.20 15.56L238.20 15.56Q238.20 18.08 236.68 20.06Q235.16 22.04 233.14 22.96Q231.12 23.88 229.20 23.88L229.20 23.88Q231.44 23.88 233.18 24.88Q234.92 25.88 236.02 27.48Q237.12 29.08 238.06 31.02Q239 32.96 239.92 34.92Q240.84 36.88 241.92 38.48Q243 40.08 244.70 41.08Q246.40 42.08 248.60 42.08L248.60 42.08Q249.60 42.08 250.24 41.68L250.24 41.68Q250.84 41.72 250.84 42.36L250.84 42.36Q250.84 43.72 248.04 43.72Q245.24 43.72 243.04 42.68Q240.84 41.64 239.48 39.96Q238.12 38.28 237.02 36.26Q235.92 34.24 234.96 32.24Q234 30.24 232.94 28.56Q231.88 26.88 230.24 25.84Q228.60 24.80 226.48 24.80L226.48 24.80Q225.44 24.80 225.44 23.68L225.44 23.68Q225.44 23.20 225.76 22.96Q226.08 22.72 226.48 22.72L226.48 22.72Q230.20 22.72 232.36 20.54Q234.52 18.36 234.52 15.56L234.52 15.56Q234.52 11.64 231.88 9.76Q229.24 7.88 225.30 7.88Q221.36 7.88 218.30 9.74Q215.24 11.60 215.24 14.36ZM219.88 13.20Q219.88 12.00 220.48 11.38Q221.08 10.76 221.92 10.76Q222.76 10.76 223.56 11.32L223.56 11.32L223.56 28.96Q223.56 33.16 221.98 35.64Q220.40 38.12 217.22 38.12Q214.04 38.12 212.44 36.66Q210.84 35.20 210.84 32.80L210.84 32.80Q210.84 29.72 212.84 29.72L212.84 29.72Q213.32 29.72 213.68 29.96Q214.04 30.20 214.28 30.64L214.28 30.64Q213.96 31.48 213.96 33.12Q213.96 34.76 214.82 35.62Q215.68 36.48 217 36.48L217 36.48Q219.88 36.48 219.88 31.36L219.88 31.36L219.88 13.20Z" transform="translate(143.78 85.06) scale(1)"></path></svg>